<?xml version="1.0" encoding="utf-8"?>
<!-- Generator: Adobe Illustrator 27.5.0, SVG Export Plug-In . SVG Version: 6.00 Build 0)  -->
<svg version="1.1" id="Layer_1" xmlns="http://www.w3.org/2000/svg" xmlns:xlink="http://www.w3.org/1999/xlink" x="0px" y="0px"
	 viewBox="0 0 1011.112 400" style="enable-background:new 0 0 1011.112 400;" xml:space="preserve">
<g>
	<rect x="0" style="fill:#FFFFFF;" width="1011.112" height="400"/>
</g>
<g>
	<path d="M949.109,150.165c0,0,25.201,28.107,19.915,60.172c-4.773,28.952-47.461,16.368-47.461,16.368l-20.406-4.839
		c0,0-7.055-17.027,3.286-33.431C914.785,172.031,949.109,150.165,949.109,150.165z"/>
</g>
<g>
	<g>
		<path style="fill:#465884;" d="M959.782,317.152c0,0-1.445-99.386-6.772-105.232c-5.327-5.846-37.879-12.028-56.626,1.961
			c-11.733,8.755-15.267,48.947-11.733,74.215c3.062,21.898,4.296,30.331,4.296,30.331L959.782,317.152z"/>
	</g>
</g>
<g>
	<g>
		<path style="fill:#E2DFE5;" d="M570.593,181.075H439.451c-2.633,0-4.768-2.135-4.768-4.768V80.386
			c0-2.633,2.135-4.768,4.768-4.768h131.142c2.633,0,4.768,2.135,4.768,4.768v95.921
			C575.361,178.94,573.226,181.075,570.593,181.075z"/>
	</g>
	<g>
		
			<rect x="535.548" y="132.667" transform="matrix(-1 -1.224647e-16 1.224647e-16 -1 1081.3695 293.5301)" style="fill:#A37B90;" width="10.273" height="28.197"/>
	</g>
	<g>
		
			<rect x="512.056" y="118.151" transform="matrix(-1 -1.224647e-16 1.224647e-16 -1 1034.3848 278.9125)" style="fill:#A37B90;" width="10.273" height="42.611"/>
	</g>
	<g>
		
			<rect x="488.563" y="105.888" transform="matrix(-1 -1.224647e-16 1.224647e-16 -1 987.4001 266.6495)" style="fill:#A37B90;" width="10.273" height="54.874"/>
	</g>
	<g>
		
			<rect x="465.071" y="93.999" transform="matrix(-1 -1.224647e-16 1.224647e-16 -1 940.4154 254.9876)" style="fill:#A37B90;" width="10.273" height="66.989"/>
	</g>
</g>
<g>
	<g>
		<path style="fill:#E2DFE5;" d="M853.228,214.523H630.19c-3.933,0-7.121-3.188-7.121-7.121V82.176c0-3.933,3.188-7.121,7.121-7.121
			h223.038c3.933,0,7.121,3.188,7.121,7.121v125.227C860.349,211.335,857.161,214.523,853.228,214.523z"/>
	</g>
	<g>
		<rect x="646.165" y="144.876" style="fill:#92B4EA;" width="10.674" height="29.295"/>
	</g>
	<g>
		<rect x="743.795" y="144.876" style="fill:#92B4EA;" width="10.674" height="29.295"/>
	</g>
	<g>
		<rect x="670.572" y="129.795" style="fill:#92B4EA;" width="10.674" height="44.271"/>
	</g>
	<g>
		<rect x="694.98" y="117.054" style="fill:#92B4EA;" width="10.674" height="57.012"/>
	</g>
	<g>
		<rect x="719.387" y="104.702" style="fill:#92B4EA;" width="10.674" height="69.599"/>
	</g>
	<g>
		<path style="fill:#F7B369;" d="M838.095,144.79c0,16.419-13.307,29.726-29.726,29.726c-16.419,0-29.726-13.307-29.726-29.726
			c0-7.819,3.02-14.932,7.972-20.236c2.882-3.112,6.439-5.611,10.425-7.236c1.947-0.813,4.001-1.426,6.132-1.794
			c1.686-0.307,3.419-0.46,5.197-0.46c12.862,0,23.808,8.171,27.948,19.592C837.466,137.814,838.095,141.233,838.095,144.79z"/>
	</g>
	<g>
		<path style="fill:#A37B90;" d="M836.316,134.656l-27.948,10.133l-12.51-20.037l1.181-7.435c1.947-0.813,4.001-1.426,6.132-1.794
			c1.686-0.307,3.419-0.46,5.197-0.46C821.231,115.064,832.177,123.235,836.316,134.656z"/>
	</g>
	<g>
		<path style="fill:#92B4EA;" d="M808.369,144.79l-21.754-20.236c4.292-4.63,10.057-7.895,16.557-9.03L808.369,144.79z"/>
	</g>
</g>
<g>
	<g>
		
			<ellipse transform="matrix(0.7071 -0.7071 0.7071 0.7071 18.8852 213.5277)" style="fill:#DDD7E0;" cx="267.193" cy="83.967" rx="34.069" ry="34.069"/>
	</g>
	<g>
		
			<ellipse transform="matrix(0.7071 -0.7071 0.7071 0.7071 18.8852 213.5277)" style="fill:#C8BCCE;" cx="267.193" cy="83.967" rx="26.723" ry="26.723"/>
	</g>
	<g>
		<path style="fill:#5C69A5;" d="M266.152,86.749c-0.134,0-0.269-0.025-0.396-0.076c-0.326-0.129-0.568-0.408-0.651-0.747
			l-3.226-13.289c-0.14-0.579,0.215-1.161,0.793-1.302c0.574-0.141,1.161,0.214,1.302,0.793l2.866,11.807l17.889-11.694
			c0.498-0.327,1.166-0.186,1.492,0.312c0.326,0.499,0.186,1.166-0.312,1.492l-19.166,12.529
			C266.564,86.69,266.358,86.749,266.152,86.749z"/>
	</g>
</g>
<g>
	<g>
		<path style="fill:#F48462;" d="M853.161,200.963c0,0-2.237-9.921-7.538-14.442c-5.301-4.52-11.572-7.433-10.475-3.411
			c1.097,4.022,4.768,10.595,4.768,10.595l-9.617-2.561c0,0-6.271-2.913-10.826-4.126c-4.556-1.213-5.989,2.136-5.989,2.136
			s-4.555-1.213-6.538,0.124c-1.982,1.337-0.576,4.199-0.576,4.199s-6.538,0.124-4.077,5.132
			c2.461,5.007,15.397,13.426,21.668,16.339c6.271,2.913,20.401,4.81,20.401,4.81S857.052,222.533,853.161,200.963z"/>
	</g>
</g>
<g>
	<path d="M818.357,203.104c-0.232,0-0.457-0.125-0.574-0.344c-0.17-0.316-0.051-0.711,0.266-0.881l16.149-8.659
		c0.317-0.169,0.712-0.049,0.881,0.266c0.17,0.317,0.051,0.712-0.266,0.881l-16.148,8.658
		C818.566,203.078,818.461,203.104,818.357,203.104z"/>
</g>
<g>
	<path d="M849.785,208.324c-0.054,0-0.108-0.007-0.164-0.021c-5.258-1.365-8.662-3.623-10.117-6.711
		c-1.602-3.397-0.197-6.491-0.137-6.622c0.152-0.326,0.54-0.467,0.864-0.315c0.325,0.151,0.467,0.537,0.316,0.863
		c-0.013,0.028-1.206,2.7,0.143,5.538c1.288,2.712,4.403,4.727,9.259,5.987c0.348,0.09,0.557,0.445,0.466,0.794
		C850.339,208.13,850.075,208.324,849.785,208.324z"/>
</g>
<g>
	<path style="fill:#465884;" d="M863.567,242.891l-8.451-32.262l-34.571,6.07c0,0-7.095,73.154,15.771,83.688
		c21.122,9.73,37.25-23.892,37.25-23.892L863.567,242.891z"/>
</g>
<g>
	<path d="M367.905,165.483c-3.684-0.375-7.451,0.49-10.415,2.709c-2.597,1.945-5.051,5.137-5.833,10.366
		c-1.877,12.549,2.686,15.896-4.344,20.773c-7.031,4.877-11.137,2.093-15.366,13.837c-4.229,11.744,3.085,27.165,17.45,23.662
		c14.365-3.503,49.152-13.903,49.152-13.903l0.369-51.792l-17.641-4.292L367.905,165.483z"/>
</g>
<g>
	<path style="fill:#6876AA;" d="M403.801,211.548c0,0,15.706,2.246,25.874,20.733c10.168,18.486,18.707,69.458,17.149,71.067
		c-1.558,1.61-35.477,6.439-63.597,6.439c-28.12,0-36.933-1.073-39.644-2.683c-2.712-1.61-2.013-88.632,13.558-95.556
		C372.712,204.625,387.091,206.013,403.801,211.548z"/>
</g>
<g>
	<path style="fill:#F7B369;" d="M407.708,212.373c0,0,24.675,38.683,29.549,63.714c4.874,25.031,5.821,42.749,5.821,42.749
		l-89.658,0.556l-1.605-68.1l9.462-40.336l26.147-3.548L407.708,212.373z"/>
</g>
<g>
	<path style="fill:#6876AA;" d="M407.708,212.373c0,0,12.585,46.572,15.243,62.842c2.658,16.269,3.207,31.819,3.207,31.819
		l16.452-2.457l-6.282-38.187l-22.453-48.861L407.708,212.373z"/>
</g>
<g>
	<path d="M413.741,174.854c0,0,6.683-11.45,6.023-16.292c-1.629-11.939-18.629-19.828-35.267-13.781
		c-16.639,6.047-19.559,26.967-16.719,35.976c7.314,23.199,27.507,14.592,27.507,14.592S426.842,188.682,413.741,174.854z"/>
</g>
<g>
	<g>
		<g>
			<g>
				<path style="fill:#F48462;" d="M408.742,199.923l-0.023,0.435l-0.744,8.188l-0.557,6.421c0,0,0.481,1.521-6.986,0.691
					c-10.005-1.151-13.042-5.612-13.042-5.612l0.267-15.1l3.016,0.72L408.742,199.923z"/>
			</g>
		</g>
	</g>
</g>
<g>
	<g>
		<g>
			<g>
				<path d="M408.719,200.358l-0.744,8.188c-4.849-0.817-13.629-3.337-16.861-11.174c-0.247-0.636-0.404-1.206-0.442-1.675
					l18.022,4.535L408.719,200.358z"/>
			</g>
		</g>
	</g>
</g>
<g>
	<g>
		<g>
			<g>
				<path style="fill:#F48462;" d="M413.71,161.237c0,0,8.35,21.792,4.434,33.639c-3.916,11.846-14.763,9.454-21.199,6.832
					c-6.435-2.621-9.287-6.773-9.287-6.773s-6.207,1.791-10.033-4.081c-3.826-5.871-1.008-12.281,2.55-13.616
					c3.558-1.335,7.592,1.376,7.592,1.376l-2.966-6.358C384.801,172.257,399.937,141.337,413.71,161.237z"/>
			</g>
		</g>
	</g>
</g>
<g>
	<path style="fill:#6876AA;" d="M407.708,212.373c0,0,22.22,0.881,40.832,17.861c18.611,16.98,45.587,58.529,34.714,73.307
		c-15.97,21.705-50.335,15.069-50.335,15.069l-1.591-35.319l-9.257-51.263L407.708,212.373z"/>
</g>
<g>
	<path d="M411.509,188.306c-0.075,0-0.151-0.013-0.225-0.04c-0.337-0.124-0.51-0.498-0.386-0.835
		c1.425-3.872-1.297-8.297-1.325-8.341c-0.19-0.305-0.098-0.706,0.207-0.897c0.303-0.191,0.705-0.1,0.896,0.205
		c0.127,0.202,3.092,5.004,1.444,9.482C412.024,188.143,411.775,188.306,411.509,188.306z"/>
</g>
<g>
	<path d="M386.367,188.553c-0.185,0-0.368-0.078-0.497-0.23l-5.477-6.453c-0.233-0.274-0.199-0.685,0.075-0.917
		c0.275-0.233,0.686-0.198,0.918,0.075l5.477,6.453c0.233,0.274,0.199,0.685-0.075,0.917
		C386.665,188.502,386.515,188.553,386.367,188.553z"/>
</g>
<g>
	<path d="M380.312,186.581c-0.331,0-0.614-0.251-0.647-0.587c-0.035-0.358,0.227-0.676,0.584-0.711l4.045-0.396
		c0.352-0.036,0.676,0.227,0.711,0.585c0.035,0.358-0.227,0.676-0.585,0.711l-4.045,0.396
		C380.355,186.581,380.333,186.581,380.312,186.581z"/>
</g>
<g>
	<path d="M404.592,194.523c-0.63,0-1.291-0.144-1.948-0.517c-2.657-1.508-3.401-4.548-3.432-4.677
		c-0.056-0.235,0.024-0.482,0.207-0.641c0.182-0.159,0.439-0.204,0.664-0.114l8.203,3.215c0.209,0.082,0.361,0.266,0.402,0.486
		c0.041,0.22-0.034,0.447-0.199,0.599C408.396,192.96,406.666,194.523,404.592,194.523z M400.986,190.325
		c0.422,0.838,1.144,1.891,2.301,2.548c1.214,0.689,2.546,0.189,3.407-0.311L400.986,190.325z"/>
</g>
<g>
	<path d="M398.948,172.006c-0.111,0-0.224-0.028-0.327-0.088c-0.311-0.181-0.415-0.58-0.235-0.89
		c1.585-2.718,5.09-1.799,5.238-1.759c0.346,0.094,0.55,0.451,0.456,0.797c-0.093,0.347-0.451,0.554-0.797,0.46
		c-0.109-0.028-2.693-0.693-3.773,1.158C399.39,171.891,399.172,172.006,398.948,172.006z"/>
</g>
<g>
	<path d="M415.527,170.415c-0.164,0-0.328-0.061-0.455-0.185c-0.013-0.013-1.311-1.256-2.565-1.165
		c-0.526,0.038-0.976,0.312-1.377,0.837c-0.217,0.286-0.626,0.341-0.913,0.122c-0.285-0.218-0.34-0.627-0.122-0.913
		c0.633-0.828,1.415-1.281,2.324-1.345c1.838-0.131,3.496,1.467,3.565,1.536c0.256,0.251,0.259,0.662,0.008,0.919
		C415.865,170.35,415.697,170.415,415.527,170.415z"/>
</g>
<g>
	<path d="M414.115,179.504c-0.332,0-0.616-0.253-0.647-0.59l-0.375-3.999c-0.017-0.181,0.043-0.36,0.164-0.496l1.613-1.794
		c0.24-0.267,0.652-0.289,0.919-0.049c0.268,0.24,0.289,0.652,0.049,0.919l-1.422,1.582l0.348,3.716
		c0.034,0.358-0.229,0.675-0.587,0.708C414.156,179.503,414.135,179.504,414.115,179.504z"/>
</g>
<g>
	<path d="M402.253,179.83c-0.338,0-0.623-0.261-0.648-0.603l-0.297-4.006c-0.015-0.203,0.065-0.401,0.217-0.536l2.334-2.068
		c0.268-0.239,0.679-0.213,0.919,0.056c0.238,0.269,0.213,0.681-0.056,0.919l-2.093,1.854l0.273,3.685
		c0.027,0.359-0.242,0.671-0.601,0.697C402.285,179.829,402.269,179.83,402.253,179.83z"/>
</g>
<g>
	<path d="M376.52,158.184c0,0,2.282-25.619-15.206-22.83c-18.527,2.954-1.04,32.524,10.803,30.905
		C377.389,165.538,376.52,158.184,376.52,158.184z"/>
</g>
<g>
	<path style="fill:#465884;" d="M403.883,216.816c-4.039,0-10.48-0.77-15.952-4.904c-0.287-0.217-0.343-0.625-0.126-0.912
		c0.216-0.286,0.624-0.345,0.912-0.127c8.088,6.114,18.775,4.407,18.884,4.392c0.35-0.065,0.689,0.179,0.75,0.534
		c0.059,0.355-0.18,0.689-0.535,0.749C407.651,216.576,406.142,216.816,403.883,216.816z"/>
</g>
<g>
	<path style="fill:#6876AA;" d="M387.424,207.409c0,0,23.014,100.989,18.592,101.514c-4.422,0.525-39.397,2.22-39.397,2.22
		l4.06-103.484L387.424,207.409z"/>
</g>
<g>
	<path style="fill:#F7B369;" d="M367.906,166.134c-0.407-0.028-0.676-0.341-0.649-0.699c0.886-11.891,8.635-16.254,8.964-16.433
		c0.316-0.174,0.709-0.057,0.882,0.259c0.172,0.314,0.057,0.71-0.257,0.883c-0.075,0.041-7.461,4.234-8.292,15.388
		C368.529,165.874,368.244,166.134,367.906,166.134z"/>
</g>
<g>
	<path d="M402.588,152.446c0,0,2.736,3.349,3.231,8.845c0.495,5.495,0.495,5.495,0.495,5.495l-22.626,7.196l-0.729-11.017
		L402.588,152.446z"/>
</g>
<g>
	<path d="M404.566,156.046c0,0,2.044,1.698,3.006,4.015c0.961,2.317,2.022,6.938,2.022,6.938l6.58-0.899l-1.032-11.499l-9.032-5.233
		l-5.362,0.733l1.011,7.398L404.566,156.046z"/>
</g>
<g>
	<g>
		<path style="fill:#68B6D8;" d="M542.058,207.567c0,0,25.487,9.469,49.48,10.933c20.772,1.268,48.913-8.466,48.913-8.466
			l16.671,36.132c0,0-54.171,43.544-87.74,25.253C526.099,247.835,542.058,207.567,542.058,207.567z"/>
	</g>
</g>
<g>
	<path style="fill:#F7B369;" d="M598.534,234.265c-0.697,0-1.327-0.271-1.836-0.792c-2.789-2.861-1.543-13.174-1.392-14.341
		c0.036-0.279,0.249-0.504,0.526-0.556c0.28-0.054,0.557,0.082,0.691,0.329c0.6,1.105,5.81,10.897,4.079,14.181
		c-0.356,0.678-0.973,1.08-1.78,1.164C598.725,234.26,598.629,234.265,598.534,234.265z M596.378,221.468
		c-0.293,3.702-0.365,9.438,1.253,11.096c0.303,0.31,0.642,0.434,1.058,0.392c0.375-0.039,0.61-0.186,0.764-0.477
		C600.353,230.769,598.32,225.445,596.378,221.468z"/>
</g>
<g>
	<g>
		<path style="fill:#F48462;" d="M642.908,213.32c0,0,4.803-10.191,11.621-13.804c6.818-3.614,14.299-5.257,12.146-1.17
			c-2.153,4.086-7.702,10.311-7.702,10.311l11.014-0.458c0,0,7.481-1.643,12.698-1.86c5.217-0.217,5.963,3.749,5.963,3.749
			s5.217-0.217,7.039,1.706c1.822,1.923-0.386,4.678-0.386,4.678s7.039,1.706,3.175,6.529c-3.865,4.823-19.875,10.817-27.357,12.459
			c-7.481,1.643-23.216,0.298-23.216,0.298S633.516,235.709,642.908,213.32z"/>
	</g>
</g>
<g>
	<path d="M680.542,224.192c-0.15,0-0.302-0.053-0.425-0.158l-15.888-13.683c-0.273-0.234-0.303-0.645-0.068-0.918
		c0.235-0.273,0.646-0.302,0.918-0.068l15.888,13.683c0.273,0.234,0.303,0.646,0.068,0.918
		C680.906,224.115,680.724,224.192,680.542,224.192z"/>
</g>
<g>
	<path d="M644.139,222.221c-0.35,0-0.638-0.277-0.65-0.628c-0.013-0.359,0.268-0.661,0.627-0.674
		c5.779-0.204,9.788-1.699,11.914-4.444c2.236-2.887,1.545-6.175,1.537-6.207c-0.077-0.352,0.145-0.699,0.495-0.776
		c0.355-0.078,0.698,0.144,0.776,0.495c0.035,0.159,0.826,3.922-1.779,7.285c-2.375,3.065-6.714,4.73-12.896,4.948
		C644.155,222.22,644.147,222.221,644.139,222.221z"/>
</g>
<g>
	<path style="fill:#F7B369;" d="M650.174,249.559l-19.826-35.469c-0.512-0.917-0.185-2.075,0.732-2.587l8.352-4.668
		c0.917-0.512,2.075-0.185,2.587,0.732l19.826,35.469c0.512,0.917,0.185,2.075-0.732,2.588l-8.352,4.668
		C651.845,250.803,650.687,250.475,650.174,249.559z"/>
</g>
<g>
	<path style="fill:#A37B90;" d="M721.044,205.949c0,0,2.543,0.635,3.149,1.586c0.606,0.951,0.441,4.724,0.441,4.724
		s25.979,2.507,52.212,32.165c26.54,30.005,29.968,47.956,21.195,61.039c-11.589,17.282-51.476,12.616-51.476,12.616
		s-9.614,1.412-43.841,0.888c-31.623-0.483-49.26-0.888-49.26-0.888s-54.467,13.127-50.128-22.937
		c5.755-47.832,63.146-78.516,74.241-82.883c10.016-3.942,19.17-4.044,19.17-4.044s0.499-1.84,1.046-2.158
		C700.717,204.358,721.044,205.949,721.044,205.949z"/>
</g>
<g>
	<path style="fill:#F7B369;" d="M255.748,207.814c0,0-20.678-1.319-32.516,9.273c-11.839,10.592-17.875,100.092-17.875,100.092
		s33.283,0.553,54.939,1.169c15.755,0.448,43.959-1.169,43.959-1.169s-8.925-91.654-14.075-102.85
		C285.029,203.132,255.748,207.814,255.748,207.814z"/>
</g>
<g>
	<path d="M526.852,145.639c0,0-24.823-7.003-35.499,17.482c-10.677,24.485-2.192,91.886-2.192,91.886l55.159-10.636l-6.8-54.304
		L526.852,145.639z"/>
</g>
<g>
	<g>
		<path style="fill:#68B6D8;" d="M515.118,203.317c0,0-32.792,8.62-38.059,25.163c-5.268,16.542,17.603,86.033,24.751,88.909
			c7.148,2.877,67.933-0.211,67.933-0.211s4.133-48.441,3.24-54.35c-0.893-5.909-4.463-29.545-11.04-39.973
			s-24.139-18.481-31.462-19.034C523.156,203.268,515.118,203.317,515.118,203.317z"/>
	</g>
</g>
<g>
	<rect x="0" y="305.895" style="fill:#EBE8EE;" width="1011.112" height="22.65"/>
</g>
<g>
	<g>
		<path style="fill:#F48462;" d="M509.947,189.98l0.387,17.525c0,0,3.272,4.968,13.542,5.575c7.651,0.452,10.296-1.334,10.296-1.334
			l-1.261-8.852l-1.241-8.632l-18.602-3.663L509.947,189.98z"/>
	</g>
</g>
<g>
	<g>
		<path d="M513.068,190.599c0.055,0.477,0.249,1.038,0.547,1.68c4.115,8.667,14.877,10.318,19.296,10.616l-1.241-8.632
			L513.068,190.599z"/>
	</g>
</g>
<g>
	<g>
		<path style="fill:#F48462;" d="M534.696,154.231c0,0,9.682,21.769,6.326,34.057c-3.356,12.288-14.543,10.431-21.245,8.104
			c-6.702-2.327-9.832-6.407-9.832-6.407s-6.232,2.159-10.447-3.621c-4.216-5.78-1.688-12.467,1.869-14.018
			c3.556-1.552,7.814,0.995,7.814,0.995l-3.365-6.323C505.815,167.017,519.586,134.682,534.696,154.231z"/>
	</g>
</g>
<g>
	<g>
		<path d="M509.18,173.34c0,0,9.383,1.923,15.935-8.505c6.553-10.428,5.967-14.72,5.967-14.72l6.466,10.805
			c0,0,1.475-7.474-1.502-12.25c-2.977-4.776-6.085-3.797-6.085-3.797l-20.715,5.109l-5.501,16.576L509.18,173.34z"/>
	</g>
</g>
<g>
	<g>
		<path style="fill:#68B6D8;" d="M494.616,212.01c0,0-48.594,23.883-43.142,70.34c5.449,46.43,63.737,39.876,85.545,34.828
			c21.808-5.048,4.8-38.182,4.8-38.182s-8.24,2.876-29.394-0.732C491.271,274.657,494.616,212.01,494.616,212.01z"/>
	</g>
</g>
<g>
	<path style="fill:#F7B369;" d="M496.059,276.419c-0.024,0-0.05-0.002-0.075-0.005c-4.714-0.548-20.138-2.596-20.709-5.936
		c-0.222-1.302,1.338-2.063,1.851-2.313c8.348-4.075,18.953,6.688,19.4,7.15c0.191,0.197,0.238,0.494,0.117,0.741
		C496.533,276.279,496.305,276.419,496.059,276.419z M481.197,268.556c-1.2,0-2.381,0.232-3.501,0.779
		c-0.981,0.479-1.153,0.829-1.138,0.924c0.259,1.513,8.978,3.485,17.584,4.615C491.629,272.675,486.246,268.556,481.197,268.556z"/>
</g>
<g>
	<path d="M537.02,161.611c-0.052,0-0.103-0.006-0.154-0.018l-2.018-0.49c-0.35-0.084-0.564-0.436-0.479-0.786
		c0.085-0.35,0.442-0.563,0.786-0.479l2.017,0.49c0.35,0.085,0.565,0.437,0.479,0.786
		C537.58,161.412,537.313,161.611,537.02,161.611z"/>
</g>
<g>
	<path d="M524.923,163.582c-0.254,0-0.495-0.15-0.6-0.399c-0.14-0.331,0.016-0.713,0.348-0.852l4.691-1.971
		c0.329-0.14,0.712,0.017,0.852,0.348c0.14,0.331-0.016,0.713-0.348,0.852l-4.691,1.971
		C525.093,163.566,525.008,163.582,524.923,163.582z"/>
</g>
<g>
	<path d="M534.649,180.552c-0.162,0-0.324-0.06-0.45-0.181c-0.26-0.249-0.269-0.661-0.02-0.92c3.035-3.164-0.757-8.928-0.796-8.985
		c-0.199-0.299-0.119-0.703,0.179-0.903c0.297-0.199,0.702-0.122,0.903,0.178c0.182,0.271,4.413,6.691,0.653,10.611
		C534.991,180.485,534.82,180.552,534.649,180.552z"/>
</g>
<g>
	<path d="M509.255,183.371c-0.151,0-0.303-0.052-0.426-0.159l-7.405-6.404c-0.271-0.235-0.302-0.646-0.066-0.918
		c0.235-0.272,0.647-0.301,0.918-0.066l7.405,6.404c0.271,0.235,0.302,0.646,0.066,0.918
		C509.618,183.295,509.437,183.371,509.255,183.371z"/>
</g>
<g>
	<path d="M501.343,183.658c-0.246,0-0.481-0.14-0.591-0.378c-0.15-0.327-0.008-0.713,0.318-0.864l5.375-2.48
		c0.323-0.151,0.713-0.009,0.863,0.318c0.15,0.327,0.008,0.713-0.318,0.864l-5.375,2.48
		C501.528,183.639,501.435,183.658,501.343,183.658z"/>
</g>
<g>
	<path style="fill:#F7B369;" d="M509.766,205.126c0,0-2.074,0.212-2.319,1.513c-0.245,1.301,7.799,23.486,14.075,25.478
		c6.276,1.991,11.183-17.609,11.482-17.276c0.299,0.333,11.548,8.69,12.756,8.423c1.208-0.267-4.005-9.891-7.283-13.671
		c-3.279-3.78-5.351-5.191-5.351-5.191s0.392,4.583,0.359,5.562c-0.032,0.979-3.921,3.146-10.825,2.03
		C512.787,210.399,509.766,205.126,509.766,205.126z"/>
</g>
<g>
	<path d="M526.037,173.027c-0.331,0-0.614-0.252-0.647-0.588l-0.429-4.455c-0.022-0.22,0.07-0.436,0.243-0.572l2.546-2.019
		c0.278-0.224,0.69-0.178,0.914,0.105c0.224,0.282,0.177,0.691-0.105,0.914l-2.269,1.799l0.394,4.103
		c0.035,0.358-0.227,0.676-0.585,0.71C526.079,173.026,526.058,173.027,526.037,173.027z"/>
</g>
<g>
	<path d="M537.711,171.698c-0.331,0-0.614-0.252-0.646-0.588l-0.429-4.455c-0.021-0.213,0.065-0.422,0.228-0.56l1.937-1.634
		c0.274-0.231,0.687-0.197,0.917,0.078c0.232,0.275,0.197,0.686-0.077,0.917l-1.676,1.414l0.396,4.115
		c0.035,0.358-0.228,0.676-0.585,0.71C537.753,171.697,537.732,171.698,537.711,171.698z"/>
</g>
<g>
	<path style="fill:#F7B369;" d="M571.614,269.551c-0.023,0-0.048-0.002-0.072-0.004c-0.357-0.04-0.615-0.361-0.576-0.719
		c3.212-29.276-9.786-38.401-9.918-38.489c-0.298-0.201-0.378-0.605-0.178-0.903c0.201-0.299,0.603-0.378,0.901-0.179
		c0.564,0.377,13.795,9.576,10.489,39.714C572.223,269.304,571.941,269.551,571.614,269.551z"/>
</g>
<g>
	<path style="fill:#F7B369;" d="M526.503,278.833c-0.018,0-0.035-0.001-0.053-0.003l-30.442-2.414
		c-0.358-0.028-0.626-0.342-0.597-0.7c0.027-0.358,0.345-0.639,0.7-0.597l30.442,2.414c0.358,0.028,0.626,0.342,0.597,0.7
		C527.124,278.574,526.839,278.833,526.503,278.833z"/>
</g>
<g>
	<path d="M528.619,189.145c-0.384,0-0.79-0.058-1.216-0.191c-3.154-0.99-3.133-4.733-3.13-4.893
		c0.003-0.204,0.102-0.395,0.267-0.516c0.164-0.12,0.379-0.155,0.572-0.097l7.261,2.201c0.195,0.059,0.352,0.206,0.422,0.397
		c0.07,0.191,0.048,0.404-0.062,0.576C532.658,186.74,531.092,189.145,528.619,189.145z M525.666,184.977
		c0.174,0.921,0.676,2.28,2.128,2.735c1.445,0.454,2.625-0.416,3.279-1.096L525.666,184.977z"/>
</g>
<g>
	<path style="fill:#F7B369;" d="M288.648,212.091c0,0,11.507,5.882,26.596,34.069c13.801,25.782,20.061,54.13,6.695,62.593
		c-34.086,21.581-77.281-10.25-77.281-10.25L288.648,212.091z"/>
</g>
<g>
	<path d="M261.227,163.268c0,0,16.751,2.508,19.338-13.538c2.754-17.084-12.981-20.341-20.436-14.076
		c-7.455,6.265-6.921,13.459-6.921,13.459s-4.277-4.719-9.939-0.028c-4.155,3.443-2.844,9.892-2.844,9.892s-8.648-1.213-8.606,6.45
		c0.042,7.663,5.074,12.061,5.074,12.061L261.227,163.268z"/>
</g>
<g>
	<g>
		<path style="fill:#F48462;" d="M242.829,191.433l-0.061,18.063c0,0,3.24,5.204,13.804,6.098c7.87,0.666,10.641-1.104,10.641-1.104
			l-1.067-9.152l-1.052-8.925l-19.067-4.261L242.829,191.433z"/>
	</g>
</g>
<g>
	<g>
		<path d="M246.028,192.152c0.044,0.493,0.23,1.076,0.519,1.745c4.012,9.037,15.055,11.019,19.6,11.442l-1.052-8.925
			L246.028,192.152z"/>
	</g>
</g>
<g>
	<g>
		<path style="fill:#F48462;" d="M269.26,155.254c0,0,9.404,22.679,5.625,35.249c-3.779,12.57-15.255,10.364-22.098,7.791
			c-6.843-2.573-9.961-6.858-9.961-6.858s-6.476,2.06-10.667-4.005c-4.191-6.065-1.412-12.887,2.292-14.392
			c3.704-1.505,8.023,1.23,8.023,1.23l-3.301-6.602C239.173,167.669,254.208,134.719,269.26,155.254z"/>
	</g>
</g>
<g>
	<path d="M241.776,183.952c-0.132,0-0.266-0.04-0.381-0.124l-8.118-5.88c-0.291-0.211-0.356-0.618-0.146-0.909
		c0.211-0.291,0.619-0.356,0.909-0.145l8.118,5.88c0.291,0.211,0.356,0.618,0.145,0.909
		C242.176,183.858,241.978,183.952,241.776,183.952z"/>
</g>
<g>
	<path d="M234.359,183.826c-0.291,0-0.556-0.196-0.63-0.491c-0.088-0.349,0.123-0.703,0.471-0.791l5.364-1.361
		c0.348-0.088,0.703,0.123,0.791,0.471c0.088,0.349-0.123,0.703-0.471,0.791l-5.364,1.361
		C234.466,183.819,234.412,183.826,234.359,183.826z"/>
</g>
<g>
	<path d="M254.1,164.662c-0.14,0-0.28-0.044-0.399-0.137c-0.284-0.221-0.335-0.63-0.115-0.914c3.038-3.91,6.981-1.822,7.02-1.8
		c0.316,0.172,0.432,0.567,0.26,0.883c-0.171,0.316-0.565,0.432-0.881,0.261c-0.136-0.071-3.03-1.556-5.371,1.455
		C254.486,164.575,254.295,164.662,254.1,164.662z"/>
</g>
<g>
	<path d="M272.798,165.669c-0.146,0-0.294-0.049-0.415-0.15c-1.956-1.626-4.039-0.438-4.059-0.425
		c-0.312,0.181-0.71,0.077-0.891-0.232c-0.182-0.311-0.078-0.709,0.232-0.891c0.117-0.069,2.9-1.655,5.549,0.547
		c0.276,0.23,0.314,0.64,0.085,0.917C273.171,165.589,272.986,165.669,272.798,165.669z"/>
</g>
<g>
	<path d="M267.162,183.992c-0.063,0-0.126-0.009-0.189-0.028c-0.344-0.104-0.539-0.467-0.435-0.811
		c1.983-6.579-1.485-11.398-1.52-11.446c-0.213-0.289-0.152-0.696,0.137-0.91c0.29-0.212,0.696-0.153,0.909,0.135
		c0.161,0.216,3.899,5.371,1.72,12.597C267.699,183.81,267.441,183.992,267.162,183.992z"/>
</g>
<g>
	<path d="M271.513,172.55c-0.287,0-0.55-0.191-0.628-0.481l-1.117-4.146c-0.094-0.347,0.112-0.705,0.459-0.798
		c0.348-0.092,0.705,0.113,0.798,0.459l1.117,4.146c0.094,0.347-0.112,0.705-0.459,0.798
		C271.627,172.543,271.569,172.55,271.513,172.55z"/>
</g>
<g>
	<path d="M260.081,173.486c-0.287,0-0.55-0.191-0.628-0.481l-1.117-4.146c-0.094-0.347,0.112-0.705,0.459-0.798
		c0.348-0.093,0.705,0.112,0.798,0.459l1.117,4.146c0.094,0.347-0.112,0.705-0.459,0.798
		C260.194,173.479,260.137,173.486,260.081,173.486z"/>
</g>
<g>
	<path d="M271.145,160.364c0,0-1.949-3.638-6.455-3.684c-4.506-0.046-7.148,3.119-7.148,3.119s1.951,7.594-4.189,11.605
		c-6.141,4.01-10.878,2.867-10.878,2.867l-4.439-1.599l-3.238-6.505l12.904-13.813l16.67-8.728l8.454,7.727L271.145,160.364z"/>
</g>
<g>
	<path style="fill:#F7B369;" d="M242.994,208.631c0,0-30.526-5.318-49.356,23.877c-15.986,24.786-16.674,48.129-16.674,48.129
		l48.284-4.05L242.994,208.631z"/>
</g>
<g>
	<path style="fill:#F48462;" d="M176.965,280.637c0,0-1.302,37.084,28.76,34.546c34.136-2.883,51.664-69.671,51.664-69.671
		l10.482-5.823c0,0-2.435,8.136,5.924,4.183c8.359-3.953,7.241-12.376,7.241-12.376l-8.452-17.35c0,0,14.776-12.594,10.688-13.521
		c-6.313-1.431-27.003,11.11-27.003,11.11s1.589-8.213-3.113-7.121c-5.075,1.179-7.756,16.339-7.756,16.339l-56.724,57.534
		L176.965,280.637z"/>
</g>
<g>
	<path d="M267.871,240.34c-0.198,0-0.392-0.092-0.518-0.257c-0.179-0.235-0.178-0.56,0.004-0.794l4.027-5.178
		c0.221-0.284,0.629-0.335,0.913-0.114c0.284,0.221,0.335,0.63,0.114,0.913l-2.518,3.236l3.445-1.425
		c0.334-0.137,0.713,0.021,0.851,0.353c0.137,0.332-0.021,0.713-0.353,0.851l-5.717,2.365
		C268.039,240.323,267.954,240.34,267.871,240.34z"/>
</g>
<g>
	<path d="M268.831,217.097c-0.219,0-0.433-0.111-0.556-0.311c-0.188-0.307-0.091-0.707,0.215-0.895l3.754-2.301
		c0.307-0.189,0.707-0.092,0.895,0.215c0.188,0.307,0.091,0.707-0.215,0.895L269.171,217
		C269.064,217.065,268.947,217.097,268.831,217.097z"/>
</g>
<g>
	<path style="fill:#F7B369;" d="M242.39,221.148l20.151,28.632c0,0-13.511,47.974-40.666,62.743
		c-27.155,14.768-48.223-5.867-44.911-31.886C180.276,254.617,242.39,221.148,242.39,221.148z"/>
</g>
<g>
	<path d="M263.354,189.582c-0.114,0-0.23-0.03-0.335-0.093l-4.137-2.487c-0.308-0.185-0.408-0.585-0.222-0.893
		c0.185-0.309,0.585-0.409,0.893-0.222l4.137,2.487c0.308,0.185,0.408,0.585,0.222,0.893
		C263.79,189.47,263.574,189.582,263.354,189.582z"/>
</g>
<g>
	<path d="M256.271,212.384c-0.165,0-0.329-0.063-0.453-0.184c-0.207-0.199-0.258-0.512-0.125-0.768
		c0.023-0.044,2.266-4.466-0.476-7.74c-0.43-0.514-0.776-0.524-0.999-0.489c-1.769,0.289-4.22,4.978-5.35,7.864
		c-0.131,0.335-0.508,0.498-0.843,0.369c-0.335-0.131-0.5-0.509-0.369-0.844c0.327-0.835,3.281-8.172,6.351-8.674
		c0.569-0.097,1.417-0.008,2.208,0.938c2.146,2.564,1.819,5.577,1.295,7.435l6.351-3.565c0.314-0.177,0.711-0.065,0.886,0.249
		c0.176,0.314,0.064,0.71-0.249,0.886l-7.91,4.44C256.489,212.356,256.379,212.384,256.271,212.384z"/>
</g>
<g>
	<path style="fill:#F48462;" d="M221.875,244.816c0,0-11.948-0.911-17.626,1.074c-5.678,1.985-16.819,15.717-15.265,17.947
		c1.554,2.229,5.384,0.324,5.384,0.324s-2.335,5.119,2.385,5.265C201.473,269.573,221.875,244.816,221.875,244.816z"/>
</g>
<g>
	<path style="fill:#FFFFFF;" d="M313.595,271.416c-0.122,0-0.246-0.035-0.355-0.106c-14.765-9.653-50.825-13.04-51.187-13.073
		c-0.358-0.033-0.622-0.35-0.589-0.708c0.033-0.358,0.353-0.621,0.707-0.589c1.493,0.137,36.745,3.449,51.781,13.28
		c0.301,0.197,0.386,0.601,0.189,0.901C314.015,271.311,313.807,271.416,313.595,271.416z"/>
</g>
<g>
	<path style="fill:#FFFFFF;" d="M262.542,250.432c-0.21,0-0.416-0.102-0.542-0.289l-19.603-29.293l-14.985,16.807
		c-0.239,0.268-0.65,0.292-0.919,0.052c-0.268-0.239-0.292-0.65-0.053-0.919l15.545-17.434c0.134-0.15,0.327-0.229,0.531-0.216
		c0.201,0.014,0.384,0.12,0.496,0.287l20.07,29.991c0.2,0.299,0.12,0.703-0.179,0.903
		C262.793,250.395,262.667,250.432,262.542,250.432z"/>
</g>
<g>
	<path style="fill:#FFFFFF;" d="M298.047,262.996c-4.404,0-10.083-0.813-12.456-1.186c-0.287-0.045-0.509-0.274-0.545-0.563
		c-0.036-0.288,0.125-0.565,0.392-0.679c0.555-0.234,13.628-5.691,17.819-0.964c0.823,0.928,0.721,1.623,0.491,2.044
		C303.196,262.658,300.886,262.996,298.047,262.996z M288.271,260.887c7.493,1.01,13.807,1.1,14.336,0.137
		c0.01-0.018-0.007-0.199-0.323-0.556C299.827,257.696,292.672,259.376,288.271,260.887z"/>
</g>
<g>
	<path style="fill:#FFFFFF;" d="M247.391,213.833c-0.042,0-0.083-0.004-0.126-0.013c-3.431-0.673-4.716-3.631-4.916-5.102
		c-0.048-0.356,0.201-0.685,0.557-0.732c0.356-0.058,0.684,0.199,0.733,0.556c0.022,0.154,0.527,3.344,3.876,4.001
		c0.353,0.069,0.583,0.411,0.514,0.764C247.968,213.617,247.696,213.833,247.391,213.833z"/>
</g>
<g>
	<path d="M194.022,265.109c-0.165,0-0.33-0.063-0.457-0.189c-0.256-0.252-0.259-0.664-0.006-0.92l11.051-11.2
		c0.253-0.256,0.665-0.261,0.92-0.006c0.256,0.252,0.259,0.664,0.006,0.92l-11.051,11.2
		C194.358,265.044,194.19,265.109,194.022,265.109z"/>
</g>
<g>
	<g>
		<g>
			<g>
				<path style="fill:#F48462;" d="M721.014,173.18c0,0,11.858-5.062,12.781,4.12c1.07,10.638-11.644,10.736-11.644,10.736
					L721.014,173.18z"/>
			</g>
		</g>
	</g>
</g>
<g>
	<path d="M726.919,182.708c-0.111,0-0.224-0.028-0.327-0.089c-0.311-0.181-0.415-0.58-0.234-0.89l3.957-6.783
		c0.181-0.31,0.577-0.417,0.891-0.234c0.31,0.181,0.415,0.58,0.234,0.89l-3.957,6.783
		C727.361,182.593,727.143,182.708,726.919,182.708z"/>
</g>
<g>
	<path style="fill:#F48462;" d="M763.29,242.483c0,0-2.66,16.297,10.537,15.788c13.197-0.509,13.901-19.344,13.901-19.344
		L763.29,242.483z"/>
</g>
<g>
	<path style="fill:#465884;" d="M778.701,223.516c0,0,14.192-25.53,16.941-24.237s-34.047,56.747-35.695,55.956
		C758.3,254.443,778.701,223.516,778.701,223.516z"/>
</g>
<g>
	<path d="M731.522,180.674c-0.011,0-3.394-0.057-3.394-0.057c-0.359-0.006-0.647-0.302-0.64-0.662
		c0.006-0.36,0.331-0.639,0.661-0.64l3.383,0.057c0.359,0.006,0.646,0.302,0.64,0.662
		C732.167,180.39,731.877,180.674,731.522,180.674z"/>
</g>
<g>
	<g>
		<g>
			<g>
				<path style="fill:#F48462;" d="M699.636,198.473l-0.1,12.451c0,0,4.808,2.588,10.816,2.691c8.112,0.138,10.85-4.674,10.85-4.674
					l-0.061-14.598L699.636,198.473z"/>
			</g>
		</g>
	</g>
</g>
<g>
	<g>
		<g>
			<g>
				<path d="M699.636,198.454c0,0,3.887,10.079,13.097,8.703c7.424-1.109,9.545-11.636,9.545-11.636L699.636,198.454z"/>
			</g>
		</g>
	</g>
</g>
<g>
	<g>
		<g>
			<g>
				<path style="fill:#F48462;" d="M724.784,162.995c0,0,5.201,22.789-1.327,32.882c-7,10.824-18.273,7.593-22.493,4.348
					c-5.691-4.376-6.857-10.447-6.857-10.447s-7.823,1.558-10.432-4.822c-2.74-6.701,2.132-12.109,6.045-12.428
					c3.913-0.319,4.369,0.393,4.369,0.393l-1.148-7.157C692.941,165.764,716.73,139.324,724.784,162.995z"/>
			</g>
		</g>
	</g>
</g>
<g>
	<path d="M692.806,183.196c-0.15,0-0.301-0.052-0.424-0.157l-6.037-5.178c-0.273-0.234-0.305-0.645-0.07-0.918
		c0.234-0.273,0.646-0.303,0.918-0.07l6.037,5.178c0.272,0.234,0.305,0.645,0.07,0.918
		C693.172,183.119,692.989,183.196,692.806,183.196z"/>
</g>
<g>
	<path d="M687.231,184.15c-0.198,0-0.393-0.089-0.521-0.26c-0.216-0.287-0.158-0.695,0.129-0.911l3.563-2.68
		c0.288-0.218,0.696-0.158,0.912,0.129c0.216,0.287,0.158,0.695-0.129,0.911l-3.563,2.68
		C687.505,184.107,687.367,184.15,687.231,184.15z"/>
</g>
<g>
	<path d="M704.575,176.901c-0.342,0-0.629-0.267-0.648-0.613l-0.224-3.834c-0.021-0.359,0.253-0.667,0.611-0.688
		c0.36-0.012,0.667,0.253,0.688,0.612l0.224,3.833c0.021,0.359-0.253,0.667-0.611,0.688
		C704.601,176.901,704.588,176.901,704.575,176.901z"/>
</g>
<g>
	<path d="M719.251,176.097c-0.342,0-0.629-0.267-0.648-0.613l-0.225-3.834c-0.021-0.359,0.253-0.667,0.611-0.688
		c0.336-0.006,0.667,0.253,0.687,0.612l0.225,3.834c0.021,0.359-0.253,0.667-0.611,0.688
		C719.277,176.096,719.264,176.097,719.251,176.097z"/>
</g>
<g>
	<path d="M712.479,186.268c-0.042,0-0.085-0.004-0.127-0.012c-0.352-0.07-0.582-0.412-0.513-0.765
		c1.118-5.659-0.727-10.35-0.745-10.397c-0.135-0.333,0.027-0.713,0.361-0.847c0.331-0.132,0.712,0.027,0.846,0.361
		c0.083,0.206,2.007,5.1,0.815,11.134C713.055,186.053,712.784,186.268,712.479,186.268z"/>
</g>
<g>
	<path d="M721.183,167.808c-0.125,0-0.253-0.036-0.364-0.112c-1.155-0.784-3.078-0.73-3.722-0.642
		c-0.348,0.046-0.684-0.201-0.732-0.558c-0.049-0.356,0.201-0.684,0.558-0.732c0.113-0.016,2.826-0.366,4.626,0.855
		c0.298,0.202,0.375,0.606,0.174,0.904C721.597,167.708,721.392,167.808,721.183,167.808z"/>
</g>
<g>
	<path d="M702.514,170.071c-0.14,0-0.28-0.044-0.398-0.137c-0.284-0.22-0.336-0.629-0.116-0.913
		c1.333-1.718,4.021-2.226,4.134-2.246c0.356-0.064,0.692,0.169,0.757,0.522c0.066,0.354-0.169,0.692-0.522,0.758
		c-0.022,0.004-2.314,0.442-3.339,1.764C702.9,169.985,702.708,170.071,702.514,170.071z"/>
</g>
<g>
	<path d="M692.284,172.959c0,0,2.459,7.027,3.37,6.741c0.911-0.287-0.622-11.37-3.27-11.817
		C689.736,167.436,692.284,172.959,692.284,172.959z"/>
</g>
<g>
	<path d="M693.399,171.919c0,0,7.844-1.049,12.922-5.394c4.289-3.669,5.771-8.679,5.771-8.679s3.365-0.601,8.339,2.131
		c4.974,2.732,5.806,11.885,5.806,11.885s8.152-15.982,3.633-21.271c-4.519-5.29-11.248-0.379-11.248-0.379
		s0.73-10.221-13.141-5.596c-13.871,4.625-16.486,16.926-16.486,16.926s-4.821-0.185-5.197,4.292c-0.376,4.477,1.66,8.91,1.66,8.91
		s1.991-2.086,5.26-1.055c3.269,1.031,3.269,1.031,3.269,1.031L693.399,171.919z"/>
</g>
<g>
	<path style="fill:#A37B90;" d="M721.044,205.949c0,0-2.453,2.803-8.662,3.539c-6.21,0.736-12.138-3.785-12.138-3.785l-3.323,7.732
		l10.481,5.129l16.489-2.947l-0.695-7.451L721.044,205.949z"/>
</g>
<g>
	<path style="fill:#92B4EA;" d="M672.487,274.429c-0.082,0-0.166-0.016-0.246-0.049c-0.259-0.105-25.992-10.404-47.193-1.083
		c-0.327,0.146-0.712-0.004-0.857-0.334c-0.144-0.329,0.005-0.713,0.334-0.857c21.712-9.547,47.946,0.961,48.209,1.069
		c0.333,0.136,0.492,0.516,0.356,0.849C672.986,274.275,672.743,274.429,672.487,274.429z"/>
</g>
<g>
	<path style="fill:#92B4EA;" d="M652.396,269.356c-0.062,0-0.123-0.009-0.185-0.027c-3.507-1.035-14.981-4.652-15.368-7.724
		c-0.06-0.474,0.069-1.157,1.023-1.726c4.887-2.925,13.997,7.229,15.018,8.396c0.191,0.218,0.215,0.535,0.059,0.779
		C652.823,269.246,652.614,269.356,652.396,269.356z M639.898,260.649c-0.503,0-0.963,0.108-1.364,0.348
		c-0.158,0.095-0.42,0.277-0.398,0.445c0.17,1.35,6.041,3.943,12.104,5.912C647.421,264.509,642.897,260.649,639.898,260.649z"/>
</g>
<g>
	<g>
		<g>
			<g>
				<path style="fill:#F48462;" d="M784.263,233.467c0,0,11.641-0.396,8.519-5.987c-3.122-5.591-23.784-9.805-26.51-3.755
					C763.547,229.775,784.263,233.467,784.263,233.467z"/>
			</g>
		</g>
	</g>
</g>
<g>
	<g>
		<g>
			<g>
				<path style="fill:#F48462;" d="M782.248,242.891c0,0,11.641-0.396,8.519-5.987c-3.121-5.591-23.784-9.805-26.509-3.755
					C761.533,239.199,782.248,242.891,782.248,242.891z"/>
			</g>
		</g>
	</g>
</g>
<g>
	<g>
		<g>
			<g>
				<path style="fill:#F48462;" d="M774.555,249.612c2.575,0.479,5.248,0.375,7.707-0.527c2.196-0.806,4.019-2.215,2.527-4.623
					c-2.983-4.818-21.418-7.716-23.585-2.259C759.588,246.27,769.438,248.659,774.555,249.612z"/>
			</g>
		</g>
	</g>
</g>
<g>
	<path d="M787.187,232.2c-0.033,0-0.067-0.003-0.102-0.008l-15.881-2.479c-0.354-0.056-0.598-0.389-0.543-0.744
		c0.056-0.355,0.387-0.593,0.744-0.543l15.881,2.479c0.354,0.056,0.598,0.389,0.543,0.744
		C787.779,231.971,787.503,232.2,787.187,232.2z"/>
</g>
<g>
	<path d="M783.805,241.906c-0.033,0-0.067-0.003-0.102-0.008l-15.881-2.479c-0.354-0.056-0.598-0.389-0.543-0.744
		c0.056-0.355,0.385-0.593,0.744-0.543l15.881,2.479c0.354,0.056,0.598,0.389,0.543,0.744
		C784.397,241.677,784.121,241.906,783.805,241.906z"/>
</g>
<g>
	<path style="fill:#92B4EA;" d="M713.976,218.559c-1.009,0-2.086-0.104-3.235-0.341c-0.353-0.072-0.579-0.417-0.507-0.769
		c0.073-0.354,0.425-0.576,0.768-0.507c8.857,1.823,12.904-4.736,13.072-5.017c0.183-0.309,0.581-0.411,0.892-0.226
		c0.309,0.184,0.41,0.582,0.227,0.891C725.153,212.658,721.551,218.559,713.976,218.559z"/>
</g>
<g>
	<path d="M709.862,192.906c-1.35,0-3.461-0.537-4.963-3.458c-0.164-0.32-0.038-0.712,0.281-0.876
		c0.323-0.165,0.714-0.038,0.877,0.281c1.83,3.561,4.572,2.683,4.686,2.643c0.341-0.114,0.708,0.065,0.826,0.403
		c0.116,0.338-0.059,0.706-0.397,0.826C711.16,192.73,710.636,192.906,709.862,192.906z"/>
</g>
<g>
	<path style="fill:#465884;" d="M830.783,276.606c0,0,17.485-12.4,27.899-21.184c10.414-8.785,33.236-40.969,42.475-44.524
		c9.239-3.555-10.682,83.091-10.682,83.091s-28.194,21.649-49.022,9.727C820.624,291.793,830.783,276.606,830.783,276.606z"/>
</g>
<g>
	<g>
		<path d="M908.025,170.928c0,0-4.726-11.018-3.822-15.853c0.904-4.835,20.067-19.06,36.125-11.336
			c16.058,7.724,16.887,28.969,13.14,37.707c-9.65,22.501-29.012,11.858-29.012,11.858S893.519,183.465,908.025,170.928z"/>
	</g>
</g>
<g>
	<g>
		<g>
			<g>
				<g>
					<path style="fill:#F48462;" d="M910.52,196.537l-0.021,0.438l-0.076,8.275l-0.086,6.487c0,0-0.634,1.475,6.927,1.392
						c10.135-0.151,13.624-4.314,13.624-4.314l1.246-15.15l-3.093,0.419L910.52,196.537z"/>
				</g>
			</g>
		</g>
	</g>
</g>
<g>
	<g>
		<g>
			<g>
				<g>
					<path d="M910.499,196.975l-0.076,8.275c4.939-0.332,13.984-1.977,18.007-9.501c0.311-0.613,0.525-1.167,0.61-1.633
						l-18.505,2.736L910.499,196.975z"/>
				</g>
			</g>
		</g>
	</g>
</g>
<g>
	<g>
		<g>
			<g>
				<g>
					<path style="fill:#F48462;" d="M909.422,157.294c0,0-10.547,20.989-7.812,33.247c2.735,12.257,13.839,10.948,20.547,8.968
						c6.708-1.981,9.981-5.853,9.981-5.853s6.037,2.415,10.457-3.081c4.42-5.497,2.241-12.199-1.189-13.893
						c-3.43-1.694-7.742,0.617-7.742,0.617l3.608-6.071C937.271,171.227,925.21,138.742,909.422,157.294z"/>
				</g>
			</g>
		</g>
	</g>
</g>
<g>
	<g>
		<path d="M933.663,177.298c0,0-9.157-5.252-12.233-12.17c-3.077-6.918-3.043-10.313-3.043-10.313s-1.583,4.368-5.054,5.25
			c-3.47,0.882-5.603,0.9-5.603,0.9l-2.48,6.198l2.128-14.956c0,0,9.506-4.518,10.746-4.46c1.241,0.059,16.767,3.603,17.628,4.588
			c0.861,0.985,5.224,13.379,5.224,13.379l0.083,5.51L933.663,177.298z"/>
	</g>
</g>
<g>
	<g>
		<path style="fill:#F48462;" d="M908.422,294.146c0,0-3.895-0.784-8.778-2.948c-4.883-2.164-24.706-2.807-31.508-3.083
			c-6.803-0.275-24.083,6.836-22.246,9.183c1.837,2.347,17.677,0.566,17.677,0.566s-13.625,10.186-11.893,12.682
			c1.732,2.496,6.761,0.335,6.761,0.335s-4.277,3.009-0.647,4.752c3.63,1.743,19.119-6.956,19.119-6.956s-7.739,10.109-5.263,11.555
			c2.476,1.445,13.519-7.256,13.519-7.256s11.496,10.637,19.755,4.736c8.259-5.901,10.734-11.045,10.734-11.045L908.422,294.146z"/>
	</g>
</g>
<g>
	<g>
		<path style="fill:#465884;" d="M953.011,211.919c0,0,45,25.717,38.105,83.98c-4.777,40.362-93.512,28.581-93.512,28.581
			l-1.218-36.385c0,0,46.688-12.673,50.311-14.648C953.699,269.628,953.011,211.919,953.011,211.919z"/>
	</g>
</g>
<g>
	<path style="fill:#A37B90;" d="M864.021,261.658c-0.177,0-0.364-0.012-0.563-0.038c-0.772-0.102-1.377-0.511-1.751-1.181
		c-1.723-3.083,1.979-11.571,2.407-12.529c0.109-0.243,0.354-0.391,0.621-0.385c0.266,0.011,0.498,0.182,0.587,0.433
		c0.35,0.987,3.347,9.727,0.943,12.692C865.876,261.13,865.183,261.658,864.021,261.658z M864.63,250.058
		c-1.192,3.04-2.771,7.984-1.787,9.747c0.176,0.314,0.418,0.476,0.787,0.524c0.985,0.132,1.399-0.222,1.624-0.499
		C866.616,258.149,865.543,253.153,864.63,250.058z"/>
</g>
<g>
	<path style="fill:#A37B90;" d="M917.051,213.705c-4.293,0-6.824-1.29-7.018-1.393c-0.317-0.167-0.438-0.56-0.271-0.878
		c0.167-0.316,0.56-0.441,0.878-0.273c0.084,0.043,8.551,4.298,21.153-3.488c0.307-0.189,0.707-0.093,0.896,0.212
		c0.188,0.306,0.094,0.707-0.212,0.896C926.192,212.662,920.91,213.705,917.051,213.705z"/>
</g>
<g>
	<path style="fill:#A37B90;" d="M896.385,288.746c-0.282,0-0.542-0.185-0.625-0.47c-0.101-0.345,0.098-0.706,0.443-0.807
		l49.813-14.504l-0.738-13.211c-0.021-0.358,0.254-0.666,0.613-0.686c0.333-0.035,0.666,0.254,0.685,0.613l0.768,13.728
		c0.018,0.302-0.177,0.576-0.468,0.661l-50.31,14.648C896.506,288.737,896.445,288.746,896.385,288.746z"/>
</g>
<g>
	<path style="fill:#A37B90;" d="M887.03,284.831c-0.344,0-0.631-0.27-0.649-0.617l-1.101-20.974
		c-0.409-0.955-2.901-7.265-2.232-17.895c0.714-11.334,6.633-20.325,6.885-20.702c0.198-0.3,0.602-0.379,0.902-0.18
		c0.299,0.199,0.38,0.603,0.181,0.902c-0.061,0.089-5.978,9.088-6.669,20.062c-0.692,10.999,2.14,17.325,2.168,17.388
		c0.034,0.075,0.054,0.155,0.059,0.237l1.107,21.093c0.019,0.359-0.257,0.665-0.616,0.685
		C887.053,284.83,887.042,284.831,887.03,284.831z"/>
</g>
<g>
	<path style="fill:#A37B90;" d="M959.863,280.191c-3.813,0-11.883-5.697-13.589-6.934c-0.238-0.173-0.331-0.484-0.227-0.76
		c0.106-0.274,0.372-0.441,0.675-0.415c1.258,0.129,12.353,1.359,14.761,4.646c0.443,0.605,0.598,1.252,0.459,1.924
		c-0.139,0.67-0.533,1.148-1.141,1.384C960.531,280.143,960.214,280.191,959.863,280.191z M949.227,273.724
		c4.099,2.735,9.461,5.743,11.104,5.1c0.14-0.054,0.276-0.144,0.336-0.434c0.063-0.304-0.011-0.587-0.233-0.891
		C959.046,275.604,953.211,274.336,949.227,273.724z"/>
</g>
<g>
	<path d="M861.461,309.104c-0.207,0-0.409-0.099-0.536-0.28c-0.205-0.296-0.131-0.701,0.165-0.906L875.408,298
		c0.298-0.205,0.701-0.129,0.906,0.164c0.204,0.296,0.131,0.701-0.165,0.906l-14.319,9.918
		C861.717,309.066,861.588,309.104,861.461,309.104z"/>
</g>
<g>
	<path d="M863.568,298.517c-0.224,0-0.44-0.115-0.562-0.321c-0.183-0.31-0.079-0.709,0.231-0.891l6.324-3.722
		c0.311-0.186,0.71-0.078,0.891,0.23c0.183,0.309,0.079,0.709-0.23,0.891l-6.324,3.722
		C863.794,298.487,863.679,298.517,863.568,298.517z"/>
</g>
<g>
	<path d="M911.689,192.323c-0.596,0-1.133-0.176-1.604-0.525c-1.261-0.936-1.524-2.809-1.535-2.888
		c-0.042-0.315,0.15-0.615,0.454-0.708l8.73-2.684c0.266-0.08,0.547,0.012,0.711,0.23c0.165,0.219,0.176,0.518,0.025,0.747
		c-0.356,0.546-3.553,5.344-6.25,5.784C912.039,192.308,911.861,192.323,911.689,192.323z M909.963,189.269
		c0.148,0.495,0.432,1.14,0.901,1.486c0.318,0.236,0.693,0.314,1.147,0.239c1.299-0.212,3.047-2.11,4.255-3.663L909.963,189.269z"/>
</g>
<g>
	<path d="M908.793,184.434c-0.274,0-0.529-0.175-0.619-0.45c-1.706-5.252,2.603-9.331,2.787-9.502
		c0.264-0.244,0.675-0.228,0.918,0.034c0.245,0.263,0.23,0.674-0.032,0.919c-0.039,0.037-3.881,3.694-2.435,8.146
		c0.111,0.342-0.076,0.709-0.418,0.82C908.927,184.424,908.859,184.434,908.793,184.434z"/>
</g>
<g>
	<path d="M907.22,175.61c-0.043,0-0.086-0.004-0.129-0.013c-0.352-0.07-0.581-0.413-0.511-0.766l0.751-3.756l-1.45-2.046
		c-0.208-0.294-0.139-0.7,0.155-0.908c0.294-0.208,0.7-0.137,0.907,0.155l1.612,2.275c0.104,0.146,0.142,0.329,0.107,0.504
		l-0.806,4.031C907.796,175.396,907.524,175.61,907.22,175.61z"/>
</g>
<g>
	<path d="M918.733,176.632c-0.043,0-0.086-0.004-0.129-0.013c-0.353-0.07-0.581-0.413-0.511-0.766l0.751-3.756l-1.45-2.046
		c-0.208-0.294-0.139-0.7,0.155-0.908c0.294-0.207,0.699-0.138,0.907,0.155l1.612,2.275c0.104,0.146,0.143,0.329,0.107,0.504
		l-0.806,4.031C919.308,176.418,919.037,176.632,918.733,176.632z"/>
</g>
<g>
	<path d="M905.822,166.384c-0.141,0-0.282-0.045-0.401-0.139c-0.283-0.222-0.333-0.631-0.111-0.914
		c1.457-1.86,3.904-1.258,4.996-0.679c0.317,0.168,0.438,0.561,0.271,0.878c-0.166,0.317-0.561,0.44-0.878,0.273
		c-0.091-0.048-2.217-1.134-3.363,0.33C906.206,166.299,906.014,166.384,905.822,166.384z"/>
</g>
<g>
	<path d="M923.155,167.304c-0.11,0-0.222-0.028-0.324-0.087c-3.005-1.734-5.086-0.917-5.173-0.883
		c-0.331,0.136-0.711-0.02-0.85-0.35c-0.139-0.33,0.013-0.708,0.342-0.849c0.108-0.047,2.729-1.128,6.331,0.954
		c0.312,0.18,0.418,0.578,0.238,0.889C923.599,167.188,923.381,167.304,923.155,167.304z"/>
</g>
<g>
	<path d="M934.281,187.688c-0.162,0-0.325-0.061-0.451-0.182c-0.259-0.249-0.267-0.661-0.018-0.92l6.195-6.437
		c0.25-0.258,0.662-0.267,0.92-0.018c0.259,0.249,0.267,0.661,0.018,0.92l-6.195,6.436
		C934.622,187.621,934.452,187.688,934.281,187.688z"/>
</g>
<g>
	<path d="M941.149,186.174c-0.049,0-0.098-0.005-0.146-0.017l-4.431-1.018c-0.351-0.081-0.569-0.43-0.489-0.78
		c0.081-0.351,0.436-0.569,0.78-0.489l4.431,1.018c0.351,0.08,0.569,0.43,0.489,0.78
		C941.714,185.97,941.445,186.174,941.149,186.174z"/>
</g>
<g>
	<path style="fill:#F48462;" d="M544.289,284.426c0,0,19.989-3.24,27.479-4.029c8.244-0.868,12.818,3.705,15.621,6.8
		c4.766,5.263,4.861,15.77,4.195,17.574c-1.013,2.742-6.034-2.87-6.034-2.87s0.49,2.19-1.874,4.16s-4.891,1.563-4.891,1.563
		s0.393,4.197-1.756,4.451c-2.149,0.254-11.26,2.377-12.16-0.197c-0.899-2.574,5.851-5.818,5.851-5.818l-1.399-4.451
		c0,0-3.771,8.952-12.035,9.047s-12.595-9.017-12.595-9.017L544.289,284.426z"/>
</g>
<g>
	<path d="M585.552,302.552c-0.033,0-0.067-0.003-0.101-0.008c-0.354-0.055-0.599-0.388-0.544-0.743
		c0.781-5.057-4.356-9.234-4.408-9.275c-0.28-0.225-0.326-0.634-0.102-0.915c0.223-0.279,0.633-0.327,0.914-0.103
		c0.236,0.188,5.779,4.684,4.883,10.492C586.144,302.321,585.867,302.552,585.552,302.552z"/>
</g>
<g>
	<path d="M578.786,308.274c-0.08,0-0.16-0.015-0.239-0.046c-0.334-0.132-0.498-0.51-0.366-0.845
		c1.605-4.069-1.783-9.058-1.817-9.107c-0.204-0.296-0.13-0.701,0.165-0.905c0.297-0.203,0.702-0.131,0.905,0.165
		c0.157,0.227,3.82,5.605,1.958,10.326C579.291,308.118,579.045,308.274,578.786,308.274z"/>
</g>
<g>
	<path style="fill:#F7B369;" d="M535.044,317.276v-40.634c0-1.05,0.851-1.901,1.901-1.901h9.568c1.05,0,1.901,0.851,1.901,1.901
		v40.634c0,1.05-0.851,1.901-1.901,1.901h-9.568C535.895,319.177,535.044,318.326,535.044,317.276z"/>
</g>
<g>
	<path style="fill:#FFFFFF;" d="M719.452,290.369l-20.406-1.672c-2.173-0.178-3.79-2.084-3.612-4.257l3.456-42.164
		c0.178-2.173,2.084-3.79,4.257-3.612l20.405,1.673c2.173,0.178,3.79,2.084,3.612,4.257l-3.456,42.164
		C723.531,288.93,721.625,290.547,719.452,290.369z"/>
</g>
<g>
	<path style="fill:#465884;" d="M722.555,290.623l-20.406-1.672c-2.173-0.178-3.79-2.084-3.612-4.257l3.456-42.164
		c0.178-2.173,2.084-3.79,4.257-3.612l20.406,1.672c2.173,0.178,3.79,2.084,3.612,4.257l-3.456,42.164
		C726.634,289.184,724.728,290.801,722.555,290.623z"/>
</g>
<g>
	<g>
		<g>
			<path style="fill:#92B4EA;" d="M778.026,314.719l81.499-0.002c1.81,0,2.95-1.949,2.062-3.527l-27.892-52.564
				c-0.419-0.745-1.207-1.206-2.062-1.206l-81.499,0.001c-1.81,0-2.95,1.949-2.062,3.527l27.892,52.564
				C776.383,314.258,777.172,314.719,778.026,314.719z"/>
		</g>
	</g>
	<g>
		<g>
			<path style="fill:#6876AA;" d="M777.03,318.736h98.615c0.91,0,1.648-0.738,1.648-1.648v-4.317c0-0.91-0.738-1.648-1.648-1.648
				H777.03c-0.91,0-1.648,0.738-1.648,1.648v4.317C775.382,317.998,776.12,318.736,777.03,318.736z"/>
		</g>
	</g>
	<g>
		<circle style="fill:#FFFFFF;" cx="801.056" cy="286.07" r="7.877"/>
	</g>
</g>
<g>
	<path style="fill:#F48462;" d="M674.786,281.64c0,0,10.151-21.726,11.775-23.274c1.624-1.549,20.545-7.975,23.119-7.849
		c2.574,0.126-1.469,5.861-3.494,7.479c-2.025,1.618-4.639,3.366-4.639,3.366s14.164,0.002,15.48,2.395
		c1.316,2.392-2.478,4.601-2.478,4.601s5.069,0.432,3.251,3.686c-1.818,3.255-15.718,6.893-15.718,6.893
		s-2.653,13.817-12.008,17.092c-9.355,3.275-13.727,2.348-13.727,2.348L674.786,281.64z"/>
</g>
<g>
	<path d="M690.718,263.022c-0.332,0-0.615-0.254-0.647-0.591c-0.033-0.358,0.23-0.675,0.588-0.709l10.828-1.01
		c0.35-0.032,0.675,0.23,0.709,0.588c0.033,0.358-0.231,0.675-0.588,0.709l-10.828,1.01
		C690.759,263.022,690.739,263.022,690.718,263.022z"/>
</g>
<g>
	<path d="M696.809,270.241c-0.344,0-0.631-0.27-0.649-0.617c-0.019-0.358,0.257-0.665,0.616-0.684l15.464-0.816
		c0.348-0.001,0.666,0.257,0.685,0.616c0.019,0.358-0.257,0.665-0.616,0.685l-15.464,0.815
		C696.833,270.24,696.821,270.241,696.809,270.241z"/>
</g>
<g>
	<path style="fill:#92B4EA;" d="M117.03,213.606c0,0,27.803,2.109,38.243,13.611c10.44,11.501-3.356,83.61-4.102,84.615
		c-0.746,1.005-10.323,4.876-44.08,4.237c-33.757-0.639-44.436-1.967-45.555-3.518c-1.119-1.551-10.224-83.999-2.021-90.897
		S96.684,211.496,117.03,213.606z"/>
</g>
<g>
	<g>
		<g>
			<g>
				<path style="fill:#F48462;" d="M100.467,199.193l0.402,18.086c0,0,3.377,5.127,13.977,5.752
					c7.896,0.466,10.625-1.378,10.625-1.378l-1.302-9.135l-1.282-8.909l-19.199-3.778L100.467,199.193z"/>
			</g>
		</g>
	</g>
</g>
<g>
	<g>
		<g>
			<g>
				<path d="M103.689,199.83c0.057,0.493,0.257,1.072,0.564,1.733c4.248,8.944,15.355,10.647,19.916,10.953l-1.282-8.909
					L103.689,199.83z"/>
			</g>
		</g>
	</g>
</g>
<g>
	<g>
		<g>
			<g>
				<path style="fill:#F48462;" d="M126.004,162.294c0,0,9.996,22.465,6.534,35.147c-3.462,12.682-15.008,10.767-21.925,8.366
					c-6.917-2.401-10.148-6.611-10.148-6.611s-6.431,2.229-10.782-3.736c-4.352-5.965-1.743-12.866,1.927-14.468
					c3.67-1.602,8.064,1.026,8.064,1.026l-3.474-6.525C96.199,175.494,110.408,142.12,126.004,162.294z"/>
			</g>
		</g>
	</g>
</g>
<g>
	<path d="M125.156,190.869c-0.064,0-0.129-0.009-0.194-0.029c-0.347-0.107-0.54-0.475-0.434-0.822
		c1.289-4.166-1.829-8.682-1.861-8.727c-0.208-0.297-0.137-0.706,0.16-0.915c0.297-0.208,0.707-0.138,0.915,0.159
		c0.145,0.205,3.523,5.081,2.042,9.872C125.697,190.688,125.437,190.869,125.156,190.869z"/>
</g>
<g>
	<path d="M98.715,192.525c-0.174,0-0.349-0.069-0.478-0.206l-6.12-6.485c-0.249-0.264-0.237-0.68,0.027-0.929
		c0.264-0.247,0.68-0.236,0.929,0.027l6.12,6.485c0.249,0.264,0.237,0.68-0.027,0.929C99.04,192.466,98.878,192.525,98.715,192.525z
		"/>
</g>
<g>
	<path d="M92.236,190.788c-0.319,0-0.6-0.233-0.649-0.559c-0.054-0.359,0.193-0.694,0.551-0.749l4.233-0.641
		c0.365-0.05,0.694,0.193,0.748,0.551c0.054,0.359-0.193,0.694-0.551,0.749l-4.233,0.641
		C92.302,190.785,92.269,190.788,92.236,190.788z"/>
</g>
<g>
	<path style="fill:#F48462;" d="M235.449,261.666l0.64-4.038c0,0,15.487-11.79,25.017-15.68c4.009-1.637,9.627-0.272,4.889,5.035
		c-2.557,2.864-3.834,6.27-3.834,6.27s7.653-2.418,12.903-5.897c3.363-2.229,8.277-11.187,11.16-9.245
		c4.586,3.089-0.685,11.832-0.685,11.832s2.382-11.076,6.908-6.753c4.509,4.307-7.807,26.06-13.672,31.254
		c-5.865,5.194-36.808,11.242-36.808,11.242L235.449,261.666z"/>
</g>
<g>
	<path d="M268.057,257.972c-0.334,0-0.62-0.254-0.653-0.593c-0.036-0.361,0.228-0.683,0.589-0.719
		c6.754-0.664,13.172-6.652,13.236-6.713c0.264-0.247,0.679-0.236,0.929,0.027c0.249,0.265,0.237,0.681-0.027,0.93
		c-0.274,0.259-6.813,6.356-14.009,7.065C268.1,257.971,268.078,257.972,268.057,257.972z"/>
</g>
<g>
	<path d="M276.079,262.998c-0.118,0-0.236-0.031-0.341-0.096l-13.568-8.234c-0.311-0.188-0.409-0.592-0.221-0.902
		c0.189-0.311,0.593-0.411,0.903-0.221l13.188,8.004l6.115-4.583c0.29-0.219,0.702-0.16,0.92,0.131
		c0.218,0.291,0.159,0.703-0.132,0.92l-6.47,4.85C276.357,262.954,276.218,262.998,276.079,262.998z"/>
</g>
<g>
	<path d="M249.984,262.767c-0.29,0-0.558-0.186-0.65-0.477c-0.113-0.359,0.086-0.742,0.445-0.855
		c7.37-2.323,12.172-7.724,12.22-7.777c0.248-0.283,0.679-0.311,0.961-0.063c0.283,0.248,0.312,0.679,0.063,0.962
		c-0.204,0.233-5.089,5.737-12.835,8.18C250.121,262.757,250.052,262.767,249.984,262.767z"/>
</g>
<g>
	<path style="fill:#92B4EA;" d="M155.273,227.217c0,0,28.053,26.654,53.497,28.281c12.268,0.785,28.728-5.072,28.728-5.072
		l14.623,38.262c0,0-51.412,48.716-103.79,10.326C133.28,287.983,155.273,227.217,155.273,227.217z"/>
</g>
<g>
	<path style="fill:#E6F4FF;" d="M151.643,291.908c-0.338,0-0.625-0.259-0.654-0.603c-0.739-8.802-2.234-25.504-2.249-25.672
		c-0.032-0.361,0.235-0.681,0.596-0.713c0.359-0.039,0.681,0.233,0.713,0.596c0.015,0.168,1.51,16.874,2.249,25.68
		c0.03,0.361-0.238,0.679-0.6,0.71C151.68,291.907,151.661,291.908,151.643,291.908z"/>
</g>
<g>
	<path style="fill:#F48462;" d="M105.737,316.139c0,0,15.088-0.634,18.388-1.085c3.3-0.451,17.827,1.875,18.312-0.634l-5.473-3.942
		c0,0,14.632,1.71,19.143-0.628c4.511-2.338,5.792-3.669,6.892-7.263c1.1-3.594-7.937-5.156-7.937-5.156s5.879-3.659-1.59-6.791
		c-7.469-3.132-39.741-7.78-53.179,0.649C86.856,299.717,105.737,316.139,105.737,316.139z"/>
</g>
<g>
	<path d="M155.063,298.088c-0.07,0-0.142-0.011-0.211-0.035c-7.758-2.639-16.048-1.507-16.131-1.495
		c-0.36,0.056-0.692-0.198-0.743-0.558c-0.051-0.359,0.199-0.692,0.558-0.743c0.352-0.05,8.677-1.191,16.739,1.552
		c0.344,0.117,0.528,0.49,0.411,0.834C155.592,297.916,155.336,298.088,155.063,298.088z"/>
</g>
<g>
	<path style="fill:#92B4EA;" d="M59.516,221.654c0,0-57.529,32.216-44.175,79.579c9.5,33.691,101.44,20.601,101.44,20.601
		l-1.035-39.874l-49.404-7.737L59.516,221.654z"/>
</g>
<g>
	<path style="fill:#E6F4FF;" d="M57.586,276.953c-3.335,0-6.051-0.412-6.703-1.647c-0.407-0.772-0.129-1.672,0.826-2.674
		c5.954-6.243,20.048,1.333,20.644,1.658c0.247,0.135,0.38,0.411,0.334,0.688c-0.047,0.276-0.265,0.493-0.542,0.538
		C69.372,275.969,62.74,276.953,57.586,276.953z M58.392,271.486c-2.239,0-4.297,0.549-5.731,2.052
		c-0.486,0.51-0.722,0.952-0.615,1.154c0.768,1.455,9.473,1.06,17.822-0.155C67.308,273.369,62.541,271.486,58.392,271.486z"/>
</g>
<g>
	<path style="fill:#E6F4FF;" d="M124.498,214.825c0,0,5.755,19.315,3.818,18.938c-1.936-0.378-13.471-10.733-13.471-10.733
		s-9.089,11.256-11.841,11.327c-2.753,0.071-2.537-21.294-2.537-21.294s2.349,6.5,12.54,7.959S124.498,214.825,124.498,214.825z"/>
</g>
<g>
	<path d="M112.968,173.426c-0.31,0-0.585-0.22-0.645-0.535c-0.067-0.357,0.168-0.701,0.524-0.768l5.063-0.956
		c0.356-0.066,0.7,0.167,0.768,0.524c0.067,0.357-0.167,0.701-0.524,0.768l-5.063,0.955
		C113.05,173.422,113.009,173.426,112.968,173.426z"/>
</g>
<g>
	<path d="M128.714,172.471c-0.064,0-0.13-0.01-0.195-0.03l-3.243-1.011c-0.347-0.108-0.54-0.477-0.432-0.823
		c0.108-0.347,0.473-0.54,0.823-0.432l3.243,1.011c0.347,0.108,0.54,0.477,0.432,0.823
		C129.254,172.29,128.995,172.471,128.714,172.471z"/>
</g>
<g>
	<g>
		<path style="fill:#FFFFFF;" d="M155.52,310.114h86.099l24.591-55.622h-82.705c-2.064,0-3.933,1.217-4.767,3.105L155.52,310.114z"
			/>
	</g>
	<g>
		<path style="fill:#A37B90;" d="M162.999,310.114h86.099l21.946-49.64c1.245-2.816-0.817-5.981-3.896-5.981H187.59L162.999,310.114
			z"/>
	</g>
	<g>
		<path style="fill:#465884;" d="M126.658,317.139H248.22c1.94,0,3.513-1.573,3.513-3.513c0-1.94-1.573-3.513-3.513-3.513H126.658
			c-1.94,0-3.513,1.573-3.513,3.513C123.145,315.567,124.718,317.139,126.658,317.139z"/>
	</g>
	<g>
		<circle style="fill:#FFFFFF;" cx="217.206" cy="282.303" r="7.313"/>
	</g>
</g>
<g>
	<path d="M127.409,181.464c-0.32,0-0.601-0.235-0.649-0.562l-0.616-4.188c-0.027-0.184,0.025-0.371,0.144-0.514l1.496-1.813
		c0.231-0.279,0.645-0.32,0.925-0.088c0.28,0.231,0.319,0.645,0.088,0.925l-1.31,1.587l0.574,3.898
		c0.053,0.359-0.196,0.693-0.555,0.746C127.474,181.461,127.441,181.464,127.409,181.464z"/>
</g>
<g>
	<path d="M115.901,182.344c-0.32,0-0.601-0.235-0.649-0.561l-0.616-4.188c-0.027-0.184,0.025-0.371,0.143-0.514l1.496-1.813
		c0.23-0.279,0.645-0.32,0.925-0.088c0.28,0.231,0.319,0.645,0.088,0.925l-1.31,1.587l0.574,3.898
		c0.053,0.359-0.196,0.693-0.555,0.746C115.965,182.342,115.932,182.344,115.901,182.344z"/>
</g>
<g>
	<path style="fill:#E6F4FF;" d="M103.69,277.803c-0.03,0-0.061-0.002-0.092-0.007c-0.225-0.031-22.644-3.136-31.495-2.274
		c-0.358,0.033-0.683-0.23-0.718-0.591c-0.035-0.36,0.229-0.683,0.59-0.718c9.008-0.872,30.878,2.152,31.804,2.282
		c0.359,0.05,0.61,0.382,0.56,0.741C104.294,277.565,104.012,277.803,103.69,277.803z"/>
</g>
<g>
	<path d="M101.251,184.153c0,0,6.001-4.285,5.477-10.541c-0.524-6.256-1.942-7.82-1.942-7.82s6.472-0.109,13.796-1.535
		c3.964-0.772,7.422-1.963,7.422-1.963l2.064,5.192c1.798-0.127,4.525-13.657-0.32-18.189c-3.395-3.176-17.134,3.552-17.134,3.552
		s-15.368-3.208-24.016,7.881c-8.648,11.089,1.673,23.63,1.673,23.63S90.77,178.693,101.251,184.153z"/>
</g>
<g>
	<path d="M118.033,155.814c0,0,3.798-10.971-4.104-12.715c-7.901-1.744-14.237,8.08-14.237,8.08s-0.237-5.435-6.103-3.575
		c-5.866,1.86-11.044,19.211-8.138,20.49C88.357,169.372,118.033,155.814,118.033,155.814z"/>
</g>
<g>
	<path d="M123.014,198.313c-0.163,0-0.331-0.012-0.504-0.037c-2.962-0.433-4.131-3.395-4.179-3.52
		c-0.077-0.202-0.05-0.429,0.072-0.607c0.123-0.179,0.325-0.285,0.542-0.285h7.849c0.223,0,0.431,0.113,0.552,0.301
		c0.121,0.187,0.139,0.423,0.047,0.626C127.325,194.942,125.771,198.313,123.014,198.313z M120.056,195.177
		c0.487,0.708,1.347,1.608,2.645,1.798c1.327,0.197,2.368-0.934,2.956-1.798H120.056z"/>
</g>
<g>
	<path d="M155.062,305.621c-0.121,0-0.244-0.033-0.353-0.103c-4.113-2.625-15.913-1.758-16.031-1.748
		c-0.364,0.021-0.678-0.243-0.706-0.605c-0.028-0.361,0.243-0.678,0.605-0.705c0.504-0.038,12.359-0.908,16.838,1.951
		c0.306,0.195,0.395,0.602,0.201,0.907C155.491,305.514,155.279,305.621,155.062,305.621z"/>
</g>
<g>
	<path style="fill:#F48462;" d="M405.49,255.057c0,0,5.939-31.103,9.001-34.471c3.061-3.368,23.206-12.262,25.772-9.815
		c2.566,2.447-0.044,5.522-0.044,5.522s3.83-2.188,5.272,0.103c1.442,2.291-1.353,5.852-1.353,5.852s3.054-1.923,2.649,2.34
		c-0.405,4.262-8.767,12.063-8.767,12.063s-0.482,8.712-5.837,18.076c-5.356,9.364-21.658,9.783-21.658,9.783L405.49,255.057z"/>
</g>
<g>
	<path d="M424.2,224.783c-0.235,0-0.461-0.128-0.578-0.351c-0.166-0.318-0.042-0.712,0.276-0.878l15.967-8.327
		c0.321-0.166,0.712-0.041,0.878,0.276c0.166,0.318,0.043,0.712-0.276,0.878l-15.967,8.327
		C424.404,224.759,424.301,224.783,424.2,224.783z"/>
</g>
<g>
	<path d="M428.516,232.68c-0.217,0-0.429-0.108-0.552-0.306c-0.191-0.305-0.098-0.707,0.207-0.897l15.622-9.78
		c0.306-0.193,0.706-0.099,0.897,0.206c0.19,0.305,0.099,0.707-0.206,0.898l-15.623,9.78
		C428.754,232.648,428.634,232.68,428.516,232.68z"/>
</g>
<g>
	<path style="fill:#6876AA;" d="M432.183,266.389c0,0-26.619,56.114-67.631,53.003c-41.012-3.111-37.916-75.35-25.036-93.658
		c12.88-18.308,31.164-18.075,31.164-18.075l16.744,47.068l13.701-11.674L432.183,266.389z"/>
</g>
<g>
	<path style="fill:#465884;" d="M361.527,279.207c-0.174,0-0.348-0.07-0.476-0.208c-0.245-0.263-0.23-0.674,0.032-0.92
		l33.156-30.912c0.263-0.244,0.674-0.231,0.92,0.033c0.245,0.263,0.23,0.674-0.032,0.92l-33.156,30.912
		C361.845,279.148,361.686,279.207,361.527,279.207z"/>
</g>
<g>
	<path style="fill:#465884;" d="M359.74,269.08c-2.137,0-3.991-0.291-5.154-1.061c-0.823-0.546-1.294-1.291-1.4-2.215
		c-0.086-0.747,0.164-1.404,0.723-1.899c3.433-3.039,19.684,0.751,21.526,1.192c0.287,0.068,0.491,0.321,0.499,0.616
		c0.007,0.295-0.185,0.558-0.467,0.641C374.971,266.501,366.106,269.08,359.74,269.08z M359.083,264.017
		c-2.045,0-3.616,0.249-4.311,0.863c-0.24,0.213-0.33,0.452-0.293,0.776c0.061,0.532,0.332,0.949,0.827,1.277
		c2.891,1.916,11.921,0.202,17.274-1.146C368.14,264.847,362.82,264.017,359.083,264.017z"/>
</g>
</svg>
